<?xml version="1.0" standalone="no"?>
<svg xmlns:xlink="http://www.w3.org/1999/xlink" id="wave" style="transform:rotate(180deg); transition: 0.3s" viewBox="0 0 1440 250" version="1.1" xmlns="http://www.w3.org/2000/svg"><defs><linearGradient id="sw-gradient-0" x1="0" x2="0" y1="1" y2="0"><stop stop-color="rgba(0, 106, 148, 1)" offset="0%"/><stop stop-color="rgba(62, 189, 200, 1)" offset="100%"/></linearGradient></defs><path style="transform:translate(0, 0px); opacity:1" fill="url(#sw-gradient-0)" d="M0,25L26.7,37.5C53.3,50,107,75,160,83.3C213.3,92,267,83,320,70.8C373.3,58,427,42,480,37.5C533.3,33,587,42,640,37.5C693.3,33,747,17,800,33.3C853.3,50,907,100,960,112.5C1013.3,125,1067,100,1120,87.5C1173.3,75,1227,75,1280,100C1333.3,125,1387,175,1440,187.5C1493.3,200,1547,175,1600,154.2C1653.3,133,1707,117,1760,104.2C1813.3,92,1867,83,1920,87.5C1973.3,92,2027,108,2080,108.3C2133.3,108,2187,92,2240,87.5C2293.3,83,2347,92,2400,83.3C2453.3,75,2507,50,2560,45.8C2613.3,42,2667,58,2720,83.3C2773.3,108,2827,142,2880,166.7C2933.3,192,2987,208,3040,183.3C3093.3,158,3147,92,3200,70.8C3253.3,50,3307,75,3360,79.2C3413.3,83,3467,67,3520,50C3573.3,33,3627,17,3680,41.7C3733.3,67,3787,133,3813,166.7L3840,200L3840,250L3813.3,250C3786.7,250,3733,250,3680,250C3626.7,250,3573,250,3520,250C3466.7,250,3413,250,3360,250C3306.7,250,3253,250,3200,250C3146.7,250,3093,250,3040,250C2986.7,250,2933,250,2880,250C2826.7,250,2773,250,2720,250C2666.7,250,2613,250,2560,250C2506.7,250,2453,250,2400,250C2346.7,250,2293,250,2240,250C2186.7,250,2133,250,2080,250C2026.7,250,1973,250,1920,250C1866.7,250,1813,250,1760,250C1706.7,250,1653,250,1600,250C1546.7,250,1493,250,1440,250C1386.7,250,1333,250,1280,250C1226.7,250,1173,250,1120,250C1066.7,250,1013,250,960,250C906.7,250,853,250,800,250C746.7,250,693,250,640,250C586.7,250,533,250,480,250C426.7,250,373,250,320,250C266.7,250,213,250,160,250C106.7,250,53,250,27,250L0,250Z"/><defs><linearGradient id="sw-gradient-1" x1="0" x2="0" y1="1" y2="0"><stop stop-color="rgba(41, 153, 188, 1)" offset="0%"/><stop stop-color="rgba(1, 191, 255, 1)" offset="100%"/></linearGradient></defs><path style="transform:translate(0, 50px); opacity:0.9" fill="url(#sw-gradient-1)" d="M0,75L26.7,70.8C53.3,67,107,58,160,70.8C213.3,83,267,117,320,120.8C373.3,125,427,100,480,87.5C533.3,75,587,75,640,75C693.3,75,747,75,800,62.5C853.3,50,907,25,960,41.7C1013.3,58,1067,117,1120,150C1173.3,183,1227,192,1280,195.8C1333.3,200,1387,200,1440,195.8C1493.3,192,1547,183,1600,150C1653.3,117,1707,58,1760,33.3C1813.3,8,1867,17,1920,16.7C1973.3,17,2027,8,2080,29.2C2133.3,50,2187,100,2240,125C2293.3,150,2347,150,2400,137.5C2453.3,125,2507,100,2560,95.8C2613.3,92,2667,108,2720,100C2773.3,92,2827,58,2880,41.7C2933.3,25,2987,25,3040,50C3093.3,75,3147,125,3200,154.2C3253.3,183,3307,192,3360,187.5C3413.3,183,3467,167,3520,137.5C3573.3,108,3627,67,3680,66.7C3733.3,67,3787,108,3813,129.2L3840,150L3840,250L3813.3,250C3786.7,250,3733,250,3680,250C3626.7,250,3573,250,3520,250C3466.7,250,3413,250,3360,250C3306.7,250,3253,250,3200,250C3146.7,250,3093,250,3040,250C2986.7,250,2933,250,2880,250C2826.7,250,2773,250,2720,250C2666.7,250,2613,250,2560,250C2506.7,250,2453,250,2400,250C2346.7,250,2293,250,2240,250C2186.7,250,2133,250,2080,250C2026.7,250,1973,250,1920,250C1866.7,250,1813,250,1760,250C1706.7,250,1653,250,1600,250C1546.7,250,1493,250,1440,250C1386.7,250,1333,250,1280,250C1226.7,250,1173,250,1120,250C1066.7,250,1013,250,960,250C906.7,250,853,250,800,250C746.7,250,693,250,640,250C586.7,250,533,250,480,250C426.7,250,373,250,320,250C266.7,250,213,250,160,250C106.7,250,53,250,27,250L0,250Z"/><defs><linearGradient id="sw-gradient-2" x1="0" x2="0" y1="1" y2="0"><stop stop-color="rgba(131, 222, 241, 1)" offset="0%"/><stop stop-color="rgba(105, 209, 203, 1)" offset="100%"/></linearGradient></defs><path style="transform:translate(0, 100px); opacity:0.8" fill="url(#sw-gradient-2)" d="M0,0L26.7,8.3C53.3,17,107,33,160,54.2C213.3,75,267,100,320,104.2C373.3,108,427,92,480,91.7C533.3,92,587,108,640,116.7C693.3,125,747,125,800,108.3C853.3,92,907,58,960,54.2C1013.3,50,1067,75,1120,70.8C1173.3,67,1227,33,1280,45.8C1333.3,58,1387,117,1440,154.2C1493.3,192,1547,208,1600,195.8C1653.3,183,1707,142,1760,125C1813.3,108,1867,117,1920,133.3C1973.3,150,2027,175,2080,166.7C2133.3,158,2187,117,2240,100C2293.3,83,2347,92,2400,95.8C2453.3,100,2507,100,2560,104.2C2613.3,108,2667,117,2720,108.3C2773.3,100,2827,75,2880,70.8C2933.3,67,2987,83,3040,91.7C3093.3,100,3147,100,3200,95.8C3253.3,92,3307,83,3360,100C3413.3,117,3467,158,3520,166.7C3573.3,175,3627,150,3680,116.7C3733.3,83,3787,42,3813,20.8L3840,0L3840,250L3813.3,250C3786.7,250,3733,250,3680,250C3626.7,250,3573,250,3520,250C3466.7,250,3413,250,3360,250C3306.7,250,3253,250,3200,250C3146.7,250,3093,250,3040,250C2986.7,250,2933,250,2880,250C2826.7,250,2773,250,2720,250C2666.7,250,2613,250,2560,250C2506.7,250,2453,250,2400,250C2346.7,250,2293,250,2240,250C2186.7,250,2133,250,2080,250C2026.7,250,1973,250,1920,250C1866.7,250,1813,250,1760,250C1706.7,250,1653,250,1600,250C1546.7,250,1493,250,1440,250C1386.7,250,1333,250,1280,250C1226.7,250,1173,250,1120,250C1066.7,250,1013,250,960,250C906.7,250,853,250,800,250C746.7,250,693,250,640,250C586.7,250,533,250,480,250C426.7,250,373,250,320,250C266.7,250,213,250,160,250C106.7,250,53,250,27,250L0,250Z"/></svg>